# xmcd CD database file generated by LOLA_Freedb v0.9beta0
# 
# Track frame offsets:
#      150
#      15363
#      31575
#      48782
#      63425
#      79769
#      91520
#      105851
#      122347
#      135750
# 
# Disc length: 2066 seconds
# 
# Revision: 0 
# Processed by: cddbd v1.5.2PL0 Copyright (c) Steve Scherf et al.
# Submitted via: LOLA_Freedb v0.9beta0
# 
DISCID=5608100a
DTITLE=Kenny and Dolly - Once Upon a Christmas
DYEAR=1900
DGENRE=
TTITLE0=I Believe in Santa Claus
TTITLE1=
TTITLE2=
TTITLE3=
TTITLE4=
TTITLE5=
TTITLE6=
TTITLE7=
TTITLE8=
TTITLE9=
EXTD=
EXTT0=
EXTT1=
EXTT2=
EXTT3=
EXTT4=
EXTT5=
EXTT6=
EXTT7=
EXTT8=
EXTT9=
PLAYORDER=
